<svg xmlns="http://www.w3.org/2000/svg" version="1.1" xmlns:xlink="http://www.w3.org/1999/xlink" xmlns:svgjs="http://svgjs.dev/svgjs" width="1500" height="1500" viewBox="0 0 1500 1500"><rect width="1500" height="1500" fill="#ffffff"></rect><g transform="matrix(0.6666666666666666,0,0,0.6666666666666666,249.39393939393938,680.1808712154092)"><svg viewBox="0 0 396 55" data-background-color="#ffffff" preserveAspectRatio="xMidYMid meet" height="208" width="1500" xmlns="http://www.w3.org/2000/svg" xmlns:xlink="http://www.w3.org/1999/xlink"><g id="tight-bounds" transform="matrix(1,0,0,1,0.2400000000000091,0.19268329196506784)"><svg viewBox="0 0 395.52 54.61463341606987" height="54.61463341606987" width="395.52"><g><svg viewBox="0 0 476.29936030248683 65.7688990676297" height="54.61463341606987" width="395.52"><g transform="matrix(1,0,0,1,0,1.1580148653972522)"><svg viewBox="0 0 395.52 63.4528693368352" height="63.4528693368352" width="395.52"><g id="textblocktransform"><svg viewBox="0 0 395.52 63.4528693368352" height="63.4528693368352" width="395.52" id="textblock"><g><svg viewBox="0 0 395.52 63.4528693368352" height="63.4528693368352" width="395.52"><g transform="matrix(1,0,0,1,0,0)"><svg width="395.52" viewBox="2.5 -36.3 228.43 36.65" height="63.4528693368352" data-palette-color="#1f4175"><g class="wordmark-text-0" data-fill-palette-color="primary" id="text-0"><path d="M25.15 0.35L25.15 0.35Q23.4 0.35 22.13-0.53 20.85-1.4 19.93-2.8 19-4.2 18.32-5.88 17.65-7.55 17.05-9.1L17.05-9.1Q16.15-11.6 15.4-13.48 14.65-15.35 13.75-16.65L13.75-16.65Q12.8-12.85 12.23-9.35 11.65-5.85 11.5-1.55L11.5-1.55Q10.6-0.7 9.47-0.25 8.35 0.2 7.2 0.2L7.2 0.2Q5.45 0.2 4.1-1.03 2.75-2.25 2.75-5.15L2.75-5.15Q2.75-7.15 3.35-9.65 3.95-12.15 4.83-14.8 5.7-17.45 6.6-19.95 7.5-22.45 8.1-24.48 8.7-26.5 8.7-27.7L8.7-27.7Q8.7-28.95 7.85-28.95L7.85-28.95Q6.9-28.95 5.55-27.53 4.2-26.1 2.8-23.55L2.8-23.55 2.5-23.65Q2.5-26.65 3.8-29 5.1-31.35 7.33-32.98 9.55-34.6 12.48-35.45 15.4-36.3 18.6-36.3L18.6-36.3Q22.85-36.3 25.5-34.98 28.15-33.65 29.43-31.58 30.7-29.5 30.7-27.15L30.7-27.15Q30.7-24.75 29.48-22.45 28.25-20.15 26.03-18.63 23.8-17.1 20.75-16.85L20.75-16.85Q21.8-16.05 22.55-14.83 23.3-13.6 24.1-12.05L24.1-12.05Q24.8-10.65 25.75-9.38 26.7-8.1 28.35-8.1L28.35-8.1Q29.2-8.1 29.75-8.53 30.3-8.95 30.7-9.95L30.7-9.95 31-9.8Q31.25-9.05 31.33-8.35 31.4-7.65 31.4-7.05L31.4-7.05Q31.4-3.9 29.65-1.78 27.9 0.35 25.15 0.35ZM16.25-21.25L16.25-21.25Q18.05-21.25 19.38-22.08 20.7-22.9 21.43-24.13 22.15-25.35 22.15-26.6L22.15-26.6Q22.15-28.15 20.98-29.33 19.8-30.5 17.15-30.5L17.15-30.5Q16.75-30.5 16.32-30.48 15.9-30.45 15.5-30.4L15.5-30.4Q15.55-30.05 15.55-29.73 15.55-29.4 15.55-29.4L15.55-29.4Q15.55-27.1 15.38-24.95 15.2-22.8 14.9-21.35L14.9-21.35Q15.25-21.3 15.58-21.28 15.9-21.25 16.25-21.25ZM45.45 0.35L45.45 0.35Q41.8 0.35 39.4-1.13 37-2.6 35.8-5.03 34.6-7.45 34.6-10.25L34.6-10.25Q34.6-12.9 35.62-15.58 36.65-18.25 38.62-20.45 40.6-22.65 43.42-24 46.25-25.35 49.8-25.35L49.8-25.35Q54.2-25.35 56.22-23.38 58.25-21.4 58.25-18.6L58.25-18.6Q58.25-16.2 56.97-14.18 55.7-12.15 53.6-10.93 51.5-9.7 49-9.7L49-9.7Q47.7-9.7 46.35-10.1 45-10.5 43.7-11.35L43.7-11.35Q43.95-8.25 45.5-6.85 47.05-5.45 49.2-5.45L49.2-5.45Q50.7-5.45 52.2-6.03 53.7-6.6 54.97-7.53 56.25-8.45 56.95-9.5L56.95-9.5 57.3-9.25Q57.3-6.65 56.22-4.83 55.15-3 53.4-1.85 51.65-0.7 49.57-0.18 47.5 0.35 45.45 0.35ZM46.6-13.15L46.6-13.15Q48.2-13.15 49.2-14.08 50.2-15 50.7-16.25 51.2-17.5 51.2-18.45L51.2-18.45Q51.2-19.6 50.55-20.38 49.9-21.15 48.75-21.15L48.75-21.15Q47.85-21.15 46.77-20.5 45.7-19.85 44.85-18.28 44-16.7 43.75-13.9L43.75-13.9Q45.35-13.15 46.6-13.15ZM66.15 0.2L66.15 0.2Q64.34 0.2 62.92-1.28 61.5-2.75 61.5-5.35L61.5-5.35Q61.5-6.65 61.85-8.33 62.2-10 62.62-11.75 63.05-13.5 63.4-15.05 63.75-16.6 63.75-17.65L63.75-17.65Q63.75-18.5 63.35-19.03 62.95-19.55 62.3-19.55L62.3-19.55Q61.45-19.55 60.45-18.55L60.45-18.55 60.15-18.75Q60.1-19.55 60.5-20.65 60.9-21.75 61.8-22.78 62.7-23.8 64.15-24.5 65.59-25.2 67.59-25.2L67.59-25.2Q69.84-25.2 70.97-23.63 72.09-22.05 72.09-19.85L72.09-19.85Q72.09-19.6 72.09-19.33 72.09-19.05 72.05-18.8L72.05-18.8Q73-20.35 74.27-21.8 75.55-23.25 77.17-24.23 78.8-25.2 80.7-25.2L80.7-25.2Q83.15-25.2 84.09-23.63 85.05-22.05 85.05-20.05L85.05-20.05Q85.05-19.65 85.02-19.28 85-18.9 84.95-18.55L84.95-18.55Q86-20.1 87.27-21.63 88.55-23.15 90.2-24.18 91.84-25.2 94-25.2L94-25.2Q96.65-25.2 97.62-23.65 98.59-22.1 98.59-20L98.59-20Q98.59-18.15 98.15-15.78 97.7-13.4 97.25-11.1 96.8-8.8 96.8-7.2L96.8-7.2Q96.8-6.25 97.07-5.65 97.34-5.05 98-5.05L98-5.05Q98.55-5.05 99.02-5.38 99.5-5.7 99.7-6.15L99.7-6.15 100.09-6Q100.09-4.15 99.05-2.75 98-1.35 96.4-0.58 94.8 0.2 93.2 0.2L93.2 0.2Q91.25 0.2 89.77-1.1 88.3-2.4 88.3-5.4L88.3-5.4Q88.3-7.25 88.77-9.4 89.25-11.55 89.72-13.58 90.2-15.6 90.2-16.9L90.2-16.9Q90.2-18.75 88.9-18.75L88.9-18.75Q87.95-18.75 87.02-17.98 86.09-17.2 85.37-15.93 84.65-14.65 84.2-13.25 83.75-11.85 83.75-10.55L83.75-10.55Q83.75-9.35 84.02-7.93 84.3-6.5 84.3-5.2L84.3-5.2Q84.3-2.6 82.84-1.2 81.4 0.2 79.45 0.2L79.45 0.2Q77.65 0.2 76.22-1 74.8-2.2 74.8-4.6L74.8-4.6Q74.8-5.7 75.09-7.28 75.4-8.85 75.77-10.58 76.15-12.3 76.45-13.9 76.75-15.5 76.75-16.7L76.75-16.7Q76.75-17.65 76.47-18.2 76.2-18.75 75.4-18.75L75.4-18.75Q74.25-18.75 73.2-17.6 72.15-16.45 71.4-14.83 70.65-13.2 70.4-11.7L70.4-11.7Q70.34-11.35 70.32-11.15 70.3-10.95 70.3-10.95L70.3-10.95Q70.3-9.4 70.65-8.13 71-6.85 71-5.5L71-5.5Q71-3.05 69.52-1.43 68.05 0.2 66.15 0.2ZM111.89-26.75L111.89-26.75Q109.89-26.75 108.62-27.98 107.34-29.2 107.34-31.05L107.34-31.05Q107.34-33.05 108.84-34.5 110.34-35.95 112.49-35.95L112.49-35.95Q114.49-35.95 115.77-34.7 117.04-33.45 117.04-31.6L117.04-31.6Q117.04-29.6 115.54-28.18 114.04-26.75 111.89-26.75ZM108.39 0.2L108.39 0.2Q106.44 0.2 104.89-1.18 103.34-2.55 103.34-5.6L103.34-5.6Q103.34-7.35 103.82-8.88 104.29-10.4 104.92-11.85 105.54-13.3 106.02-14.68 106.49-16.05 106.49-17.4L106.49-17.4Q106.49-18.6 106.09-19.13 105.69-19.65 105.14-19.65L105.14-19.65Q104.29-19.65 103.49-18.55L103.49-18.55 103.14-18.75Q103.34-20.75 104.42-22.18 105.49-23.6 107.07-24.4 108.64-25.2 110.19-25.2L110.19-25.2Q112.09-25.2 113.49-23.98 114.89-22.75 114.89-20L114.89-20Q114.89-18.35 114.42-16.53 113.94-14.7 113.32-12.9 112.69-11.1 112.22-9.55 111.74-8 111.74-6.9L111.74-6.9Q111.74-5.95 112.12-5.55 112.49-5.15 112.94-5.15L112.94-5.15Q113.39-5.15 113.82-5.43 114.24-5.7 114.44-6.05L114.44-6.05 114.79-5.95Q114.79-4.1 113.82-2.73 112.84-1.35 111.39-0.58 109.94 0.2 108.39 0.2ZM120.44 0.35L120.44 0.35Q118.74 0.35 117.69-0.78 116.64-1.9 116.64-3.55L116.64-3.55Q116.64-4.3 116.89-5.1 117.14-5.9 117.64-6.7L117.64-6.7Q118.64-6.55 119.44-6.55L119.44-6.55Q121.89-6.55 123.59-7.73 125.29-8.9 126.29-11.05L126.29-11.05Q124.39-15.25 123.14-16.9 121.89-18.55 121.09-18.55L121.09-18.55Q120.64-18.55 120.29-18.18 119.94-17.8 119.59-17.25L119.59-17.25 119.34-17.35Q119.59-20.8 120.99-23.13 122.39-25.45 124.54-25.45L124.54-25.45Q125.99-25.45 127.19-24.45 128.39-23.45 129.39-21.9 130.39-20.35 131.19-18.68 131.99-17 132.64-15.7L132.64-15.7Q133.74-20.65 135.97-23 138.19-25.35 140.29-25.35L140.29-25.35Q141.84-25.35 142.52-24.3 143.19-23.25 143.19-21.75L143.19-21.75Q143.19-19.15 141.74-16.75L141.74-16.75Q141.39-16.8 141.02-16.82 140.64-16.85 140.24-16.85L140.24-16.85Q138.24-16.85 136.56-15.93 134.89-15 133.84-13.4L133.84-13.4Q135.79-9.75 136.99-8.28 138.19-6.8 139.09-6.8L139.09-6.8Q139.99-6.8 140.44-7.9L140.44-7.9 140.84-7.75Q140.69-5.6 140.04-3.75 139.39-1.9 138.27-0.78 137.14 0.35 135.49 0.35L135.49 0.35Q133.79 0.35 132.37-0.9 130.94-2.15 129.74-4.13 128.54-6.1 127.49-8.35L127.49-8.35Q127.09-5.3 125.94-3.38 124.79-1.45 123.32-0.55 121.84 0.35 120.44 0.35ZM149.44 0.2L149.44 0.2Q147.64 0.2 146.24-1.38 144.84-2.95 144.84-6.3L144.84-6.3Q144.84-8.65 145.46-11 146.09-13.35 146.74-15.3L146.74-15.3Q147.74-18.5 148.49-21.2 149.24-23.9 149.24-26.35L149.24-26.35Q149.24-28.05 148.86-28.7 148.49-29.35 147.89-29.35L147.89-29.35Q147.24-29.35 146.46-28.65 145.69-27.95 144.94-26.5L144.94-26.5 144.59-26.6Q144.69-29.5 145.84-31.6 146.99-33.7 148.74-34.85 150.49-36 152.34-36L152.34-36Q154.44-36 155.94-34.33 157.44-32.65 157.44-28.55L157.44-28.55Q157.44-26.4 157.01-24.05 156.59-21.7 156.04-19.35L156.04-19.35Q157.74-20.05 159.64-20.35 161.54-20.65 163.69-20.65L163.69-20.65 164.99-20.65Q165.64-23.15 166.11-25.58 166.59-28 166.59-30.1L166.59-30.1Q166.59-30.85 166.51-31.5 166.44-32.15 166.34-32.75L166.34-32.75 166.34-33.15Q167.09-34.5 168.51-35.3 169.94-36.1 171.39-36.1L171.39-36.1Q173.04-36.1 174.29-35.02 175.54-33.95 175.54-31.6L175.54-31.6Q175.54-29.85 174.86-27.1 174.19-24.35 173.34-21.45L173.34-21.45Q172.34-17.9 171.51-14.58 170.69-11.25 170.69-8.95L170.69-8.95Q170.69-7.4 171.19-6.5 171.69-5.6 172.79-5.6L172.79-5.6Q174.29-5.6 175.04-7.05L175.04-7.05 175.34-6.9Q175.29-4.8 174.19-3.2 173.09-1.6 171.46-0.7 169.84 0.2 168.14 0.2L168.14 0.2Q166.64 0.2 165.31-0.58 163.99-1.35 163.16-3 162.34-4.65 162.34-7.3L162.34-7.3Q162.34-9.05 162.71-11.13 163.09-13.2 163.59-15.35L163.59-15.35Q161.29-15.5 159.09-15.5L159.09-15.5Q157.99-15.5 156.99-15.45 155.99-15.4 155.09-15.3L155.09-15.3Q154.64-13.3 154.31-11.38 153.99-9.45 153.99-7.65L153.99-7.65Q153.99-6.65 154.11-5.68 154.24-4.7 154.54-3.8L154.54-3.8Q153.74-1.85 152.31-0.83 150.89 0.2 149.44 0.2ZM184.44 0.2L184.44 0.2Q182.19 0.2 180.66-1.65 179.14-3.5 179.14-6.6L179.14-6.6Q179.14-8.3 179.54-10.25 179.94-12.2 180.34-13.95L180.34-13.95Q180.69-15.25 180.91-16.38 181.14-17.5 181.14-18.2L181.14-18.2Q181.14-19.1 180.76-19.5 180.39-19.9 179.89-19.9L179.89-19.9Q179.39-19.9 178.89-19.58 178.39-19.25 178.09-18.6L178.09-18.6 177.69-18.75Q177.69-20.8 178.69-22.25 179.69-23.7 181.24-24.45 182.79-25.2 184.39-25.2L184.39-25.2Q185.69-25.2 186.89-24.68 188.09-24.15 188.86-23.05 189.64-21.95 189.64-20.3L189.64-20.3Q189.64-19.3 189.36-17.9 189.09-16.5 188.74-15L188.74-15Q188.39-13.45 188.06-11.88 187.74-10.3 187.74-9.1L187.74-9.1Q187.74-8 188.09-7.3 188.44-6.6 189.14-6.6L189.14-6.6Q190.44-6.6 192.06-9 193.69-11.4 194.69-15.45L194.69-15.45Q194.89-16.25 195.04-17.15 195.19-18.05 195.19-19L195.19-19Q195.19-19.75 195.09-20.53 194.99-21.3 194.79-22.1L194.79-22.1 194.79-22.45Q195.59-23.8 196.86-24.5 198.14-25.2 199.44-25.2L199.44-25.2Q201.19-25.2 202.59-24 203.99-22.8 203.99-20.5L203.99-20.5Q203.99-19.15 203.49-17.38 202.99-15.6 202.39-13.7L202.39-13.7Q201.79-11.85 201.29-10.05 200.79-8.25 200.79-6.85L200.79-6.85Q200.79-4.8 202.24-4.8L202.24-4.8Q202.64-4.8 203.21-5.03 203.79-5.25 204.29-5.95L204.29-5.95 204.64-5.85Q204.64-4.05 203.66-2.68 202.69-1.3 201.19-0.55 199.69 0.2 198.09 0.2L198.09 0.2Q196.04 0.2 194.41-1.3 192.79-2.8 192.79-6.2L192.79-6.2 192.79-6.3Q190.74-2.8 188.54-1.3 186.34 0.2 184.44 0.2ZM220.38 0.2L220.38 0.2Q218.38 0.2 216.73-0.68 215.08-1.55 214.03-3.25L214.03-3.25Q213.98-2.3 213.33-1.5 212.68-0.7 210.88-0.7L210.88-0.7Q208.88-0.7 207.93-1.8 206.98-2.9 206.98-4.7L206.98-4.7Q206.98-5.8 207.28-7.88 207.58-9.95 208.01-12.55 208.43-15.15 208.86-17.95 209.28-20.75 209.58-23.4 209.88-26.05 209.88-28.15L209.88-28.15Q209.88-29.55 209.73-30.6 209.58-31.65 209.18-32.25L209.18-32.25 209.18-32.55Q210.33-33.8 211.58-34.43 212.83-35.05 213.98-35.05L213.98-35.05Q215.68-35.05 216.88-33.7 218.08-32.35 218.08-29.4L218.08-29.4Q218.08-27.95 217.78-25.33 217.48-22.7 217.03-20.1L217.03-20.1Q218.83-22.65 220.86-24 222.88-25.35 224.78-25.35L224.78-25.35Q227.33-25.35 229.13-22.93 230.93-20.5 230.93-15.6L230.93-15.6Q230.93-12.7 230.26-9.88 229.58-7.05 228.23-4.78 226.88-2.5 224.91-1.15 222.93 0.2 220.38 0.2ZM217.88-4.85L217.88-4.85Q219.48-4.85 220.61-6.25 221.73-7.65 222.31-9.83 222.88-12 222.88-14.3L222.88-14.3Q222.88-15.8 222.63-17.18 222.38-18.55 221.88-19.43 221.38-20.3 220.58-20.3L220.58-20.3Q219.18-20.3 217.41-17.03 215.63-13.75 214.63-7.75L214.63-7.75Q215.53-4.85 217.88-4.85Z" fill="#1f4175" data-fill-palette-color="primary"></path></g></svg></g></svg></g></svg></g></svg></g><g transform="matrix(1,0,0,1,410.4996995815627,0)"><svg viewBox="0 0 65.79966072092412 65.7688990676297" height="65.7688990676297" width="65.79966072092412"><g><svg xmlns="http://www.w3.org/2000/svg" xmlns:xlink="http://www.w3.org/1999/xlink" version="1.1" x="0" y="0" viewBox="0.7607695154586737 0.7749999999999999 30.43923048454133 30.424999999999997" enable-background="new 0 0 32 32" xml:space="preserve" height="65.7688990676297" width="65.79966072092412" class="icon-icon-0" data-fill-palette-color="accent" id="icon-0"><g fill="#ed2326" data-fill-palette-color="accent"><g fill="#ed2326" data-fill-palette-color="accent"><path fill="#ed2326" d="M1.5 31.2c-0.2 0-0.4-0.1-0.5-0.2-0.2-0.2-0.3-0.4-0.2-0.7l3.7-19.1c0.1-0.3 0.3-0.6 0.6-0.6l9.6-1.3c0.2 0 0.5 0 0.6 0.2l7.2 7.2c0.2 0.2 0.2 0.4 0.2 0.6l-1.3 9.6c0 0.3-0.3 0.6-0.6 0.6L1.6 31.2H1.5zM5.8 12.1L2.4 29.6l17.5-3.4 1.2-8.7-6.7-6.7L5.8 12.1z" data-fill-palette-color="accent"></path></g><g fill="#ed2326" data-fill-palette-color="accent"><rect x="5.2" y="19.8" transform="matrix(-0.7071 -0.7071 0.7071 -0.7071 -8.3465 48.7211)" fill="#ed2326" width="1.5" height="12.6" data-fill-palette-color="accent"></rect></g><g fill="#ed2326" data-fill-palette-color="accent"><path fill="#ed2326" d="M12 23.1c-0.8 0-1.6-0.3-2.2-0.9-0.6-0.6-0.9-1.3-0.9-2.2 0-0.8 0.3-1.6 0.9-2.2 1.2-1.2 3.2-1.2 4.3 0 1.2 1.2 1.2 3.1 0 4.3C13.6 22.8 12.8 23.1 12 23.1zM12 18.4c-0.4 0-0.8 0.2-1.1 0.5s-0.5 0.7-0.5 1.1 0.2 0.8 0.5 1.1c0.6 0.6 1.6 0.6 2.2 0 0.6-0.6 0.6-1.6 0-2.2C12.8 18.6 12.4 18.4 12 18.4z" data-fill-palette-color="accent"></path></g><g fill="#ed2326" data-fill-palette-color="accent"><path fill="#ed2326" d="M23.8 18.7c-0.9 0-1.8-0.4-2.4-1l-7.1-7.1c-1.3-1.3-1.3-3.5 0-4.8L19.1 1c0.3-0.3 0.8-0.3 1.1 0L31 11.8c0.1 0.1 0.2 0.3 0.2 0.5s-0.1 0.4-0.2 0.5l-4.9 4.9C25.5 18.4 24.7 18.7 23.8 18.7zM19.7 2.6l-4.3 4.3c-0.7 0.7-0.7 2 0 2.7l7.1 7.1c0.7 0.7 2 0.7 2.7 0l4.3-4.3L19.7 2.6z" data-fill-palette-color="accent"></path></g></g></svg></g></svg></g></svg></g><defs></defs></svg><rect width="395.52" height="54.61463341606987" fill="none" stroke="none" visibility="hidden"></rect></g></svg></g></svg>